<svg width="434" height="75" viewBox="0 0 434 75" fill="none" xmlns="http://www.w3.org/2000/svg">
<path d="M15.5 29.7324V44H13.1465V32.5254L9.66016 33.707V31.7637L15.2168 29.7324H15.5ZM26.8672 29.7324V44H24.5137V32.5254L21.0273 33.707V31.7637L26.584 29.7324H26.8672ZM31.9746 42.8281C31.9746 42.4635 32.0983 42.1576 32.3457 41.9102C32.5931 41.6562 32.9284 41.5293 33.3516 41.5293C33.7812 41.5293 34.1165 41.6562 34.3574 41.9102C34.6048 42.1576 34.7285 42.4635 34.7285 42.8281C34.7285 43.1927 34.6048 43.4987 34.3574 43.7461C34.1165 43.9935 33.7812 44.1172 33.3516 44.1172C32.9284 44.1172 32.5931 43.9935 32.3457 43.7461C32.0983 43.4987 31.9746 43.1927 31.9746 42.8281ZM31.9844 34.5078C31.9844 34.1432 32.1081 33.8372 32.3555 33.5898C32.6029 33.3359 32.9382 33.209 33.3613 33.209C33.791 33.209 34.1263 33.3359 34.3672 33.5898C34.6146 33.8372 34.7383 34.1432 34.7383 34.5078C34.7383 34.8724 34.6146 35.1784 34.3672 35.4258C34.1263 35.6732 33.791 35.7969 33.3613 35.7969C32.9382 35.7969 32.6029 35.6732 32.3555 35.4258C32.1081 35.1784 31.9844 34.8724 31.9844 34.5078ZM46.3496 35.6992V38.0234C46.3496 39.1367 46.2389 40.0872 46.0176 40.875C45.8027 41.6562 45.4902 42.291 45.0801 42.7793C44.6699 43.2676 44.1784 43.6257 43.6055 43.8535C43.0391 44.0814 42.4043 44.1953 41.7012 44.1953C41.1413 44.1953 40.6204 44.1237 40.1387 43.9805C39.6634 43.8372 39.2337 43.6126 38.8496 43.3066C38.4655 43.0007 38.1367 42.6068 37.8633 42.125C37.5964 41.6367 37.388 41.054 37.2383 40.377C37.0951 39.6999 37.0234 38.9154 37.0234 38.0234V35.6992C37.0234 34.5794 37.1341 33.6354 37.3555 32.8672C37.5768 32.0924 37.8926 31.4642 38.3027 30.9824C38.7129 30.4941 39.2012 30.1393 39.7676 29.918C40.3405 29.6966 40.9785 29.5859 41.6816 29.5859C42.248 29.5859 42.7689 29.6576 43.2441 29.8008C43.7259 29.9375 44.1556 30.1556 44.5332 30.4551C44.9173 30.7546 45.2428 31.1452 45.5098 31.627C45.7832 32.1022 45.9915 32.6784 46.1348 33.3555C46.278 34.026 46.3496 34.8073 46.3496 35.6992ZM43.9961 38.3555V35.3477C43.9961 34.7812 43.9635 34.2832 43.8984 33.8535C43.8333 33.4173 43.7357 33.0495 43.6055 32.75C43.4818 32.444 43.3255 32.1966 43.1367 32.0078C42.9479 31.8125 42.7331 31.6725 42.4922 31.5879C42.2513 31.4967 41.9811 31.4512 41.6816 31.4512C41.3171 31.4512 40.9915 31.5228 40.7051 31.666C40.4186 31.8027 40.1777 32.0241 39.9824 32.3301C39.7871 32.6361 39.6374 33.0397 39.5332 33.541C39.4355 34.0358 39.3867 34.638 39.3867 35.3477V38.3555C39.3867 38.9284 39.4193 39.4329 39.4844 39.8691C39.5495 40.3053 39.6471 40.6797 39.7773 40.9922C39.9076 41.2982 40.0638 41.5521 40.2461 41.7539C40.4349 41.9492 40.6497 42.0924 40.8906 42.1836C41.138 42.2747 41.4082 42.3203 41.7012 42.3203C42.0723 42.3203 42.401 42.2487 42.6875 42.1055C42.974 41.9622 43.2148 41.7344 43.4102 41.4219C43.6055 41.1029 43.752 40.6895 43.8496 40.1816C43.9473 39.6738 43.9961 39.0651 43.9961 38.3555ZM57.8926 29.7812V31.0703L52.209 44H49.7285L55.4023 31.6562H48.0391V29.7812H57.8926Z" fill="#F5EFEF"/>
<g clip-path="url(#clip0_2_11)">
<path d="M378 42.8333L370 34.8333C371.056 33.7556 372.275 32.9306 373.658 32.3583C375.042 31.7861 376.489 31.5 378 31.5C379.511 31.5 380.958 31.7861 382.342 32.3583C383.725 32.9306 384.944 33.7556 386 34.8333L378 42.8333Z" fill="#FFFAFA"/>
<path d="M391 43.8333L404.333 30.5V43.8333H391ZM399.667 42.5H403V33.7333L399.667 37.0667V42.5Z" fill="white"/>
<path d="M415.667 43.8333C415.478 43.8333 415.319 43.7694 415.192 43.6417C415.064 43.5139 415 43.3556 415 43.1667V32.5C415 32.3111 415.064 32.1528 415.192 32.025C415.319 31.8972 415.478 31.8333 415.667 31.8333H417V30.5H419.667V31.8333H421C421.189 31.8333 421.347 31.8972 421.475 32.025C421.603 32.1528 421.667 32.3111 421.667 32.5V43.1667C421.667 43.3556 421.603 43.5139 421.475 43.6417C421.347 43.7694 421.189 43.8333 421 43.8333H415.667ZM416.333 34.5H420.333V33.1667H416.333V34.5Z" fill="#FFFCFC"/>
</g>
<defs>
<clipPath id="clip0_2_11">
<rect width="56" height="16" fill="white" transform="translate(370 29.5)"/>
</clipPath>
</defs>
</svg>
